<svg id="Group_989" data-name="Group 989" xmlns="http://www.w3.org/2000/svg" xmlns:xlink="http://www.w3.org/1999/xlink" width="143.828" height="121.222" viewBox="0 0 143.828 121.222">
  <defs>
    <clipPath id="clip-path">
      <rect id="Rectangle_451" data-name="Rectangle 451" width="143.828" height="121.222" fill="none"/>
    </clipPath>
  </defs>
  <g id="Group_988" data-name="Group 988" clip-path="url(#clip-path)">
    <path id="Path_2592" data-name="Path 2592" d="M11.653,154.284a5.142,5.142,0,0,0,2.915-4.809c0-3.494-2.589-5.842-6.443-5.842H0v21.9H8.366c4.091,0,6.532-2.273,6.532-6.081a5.423,5.423,0,0,0-3.245-5.17m-3.708-.912H2.124v-7.795H7.945c1.353,0,4.5.379,4.5,3.9s-3.146,3.9-4.5,3.9m-5.821,1.944H8.186c2.83,0,4.589,1.586,4.589,4.138s-1.758,4.138-4.589,4.138H2.124Z" transform="translate(0 -71.675)"/>
    <path id="Path_2593" data-name="Path 2593" d="M44.3,155.578a5.74,5.74,0,0,0,4.8-5.954c0-3.64-2.5-5.992-6.382-5.992h-8.4v21.9h2.124v-9.859h5.489l5.11,9.859h2.459Zm-7.852-10h6.062c1.669,0,4.469.531,4.469,4.079s-2.8,4.077-4.469,4.077H36.449Z" transform="translate(-17.129 -71.674)"/>
    <path id="Path_2594" data-name="Path 2594" d="M77.679,143.633H75.887l-8.06,21.9h2.278l1.864-5.2H81.6l1.864,5.2h2.278Zm-5.02,14.759,4.124-11.6,4.124,11.6Z" transform="translate(-33.847 -71.675)"/>
    <path id="Path_2595" data-name="Path 2595" d="M124.3,143.633l-7.113,16.138L109.9,143.633h-2.036v21.9h2.125V148.8l6.2,13.726h1.948l6.079-13.706v16.712h2.124v-21.9Z" transform="translate(-53.824 -71.675)"/>
    <path id="Path_2596" data-name="Path 2596" d="M158.874,143.633h-1.793l-8.059,21.9H151.3l1.864-5.2h9.627l1.864,5.2h2.278Zm-5.02,14.759,4.124-11.6,4.124,11.6Z" transform="translate(-74.364 -71.675)"/>
    <path id="Path_2597" data-name="Path 2597" d="M191.181,163.591V143.632h-2.124v21.9h13.486v-1.944Z" transform="translate(-94.342 -71.675)"/>
    <path id="Path_2598" data-name="Path 2598" d="M234.86,145.576v-1.944H221.374v21.9H234.86v-1.944H223.5v-8.126h9.679v-1.944H223.5v-7.945Z" transform="translate(-110.469 -71.675)"/>
    <path id="Path_2599" data-name="Path 2599" d="M261.188,143.633H259.4l-8.059,21.9h2.279l1.864-5.2h9.627l1.864,5.2h2.279Zm-5.02,14.759,4.124-11.6,4.124,11.6Z" transform="translate(-125.42 -71.675)"/>
    <path id="Path_2600" data-name="Path 2600" d="M54.664,207.275a6.8,6.8,0,0,0-3.942-1.471l-2.31-.359a6.927,6.927,0,0,1-3.069-1.268,3.181,3.181,0,0,1-1.023-2.6c0-2.61,1.76-4.168,4.709-4.168a6.555,6.555,0,0,1,5.027,1.915l.177.169,1.414-1.415-.2-.176a8.713,8.713,0,0,0-6.326-2.376c-4.252,0-6.894,2.342-6.894,6.112A5.111,5.111,0,0,0,44,205.76a7.487,7.487,0,0,0,3.943,1.622l2.5.391a4.906,4.906,0,0,1,2.968,1.085,3.466,3.466,0,0,1,1.084,2.815c0,2.61-1.963,4.168-5.25,4.168a7.243,7.243,0,0,1-5.9-2.451l-.177-.177-1.5,1.5.177.177a9.339,9.339,0,0,0,7.3,2.9c4.6,0,7.465-2.365,7.465-6.172a5.479,5.479,0,0,0-1.951-4.338" transform="translate(-20.795 -97.568)"/>
    <path id="Path_2601" data-name="Path 2601" d="M90.123,206.653c0-4.814,0-6.807-2.058-8.864a7.871,7.871,0,0,0-11.055,0c-2.057,2.057-2.057,4.05-2.057,8.864,0,4.674,0,6.807,2.057,8.863a7.755,7.755,0,0,0,5.527,2.268,7.863,7.863,0,0,0,4.7-1.541l2.547,2.547,1.436-1.436-2.54-2.54c1.445-1.811,1.445-3.977,1.445-8.16m-5.872,3.734-1.436,1.436,2.98,2.98a5.589,5.589,0,0,1-7.138-.543c-1.457-1.457-1.58-3.052-1.58-7.607s.122-6.15,1.58-7.608a5.557,5.557,0,0,1,7.761,0C87.876,200.5,88,202.1,88,206.653c0,3.42-.038,5.359-.813,6.668Z" transform="translate(-37.403 -97.568)"/>
    <path id="Path_2602" data-name="Path 2602" d="M124.134,210.379c0,3.427-2.143,5.641-5.46,5.641s-5.461-2.214-5.461-5.641v-14.5h-2.124v14.708c0,4.342,3.119,7.374,7.585,7.374s7.584-3.032,7.584-7.374V195.881h-2.124Z" transform="translate(-55.435 -97.747)"/>
    <path id="Path_2603" data-name="Path 2603" d="M151.107,195.881l-8.059,21.9h2.278l1.864-5.2h9.627l1.864,5.2h2.278l-8.059-21.9ZM147.88,210.64l4.124-11.6,4.124,11.6Z" transform="translate(-71.383 -97.747)"/>
    <path id="Path_2604" data-name="Path 2604" d="M197.862,201.873c0-3.64-2.5-5.992-6.382-5.992h-8.4v21.9h2.124v-9.859H190.7l5.11,9.859h2.459l-5.2-9.957a5.739,5.739,0,0,0,4.8-5.954m-12.654-4.048h6.062c1.669,0,4.468.53,4.468,4.078s-2.8,4.078-4.468,4.078h-6.062Z" transform="translate(-91.361 -97.747)"/>
    <path id="Path_2605" data-name="Path 2605" d="M231.983,197.825v-1.944H218.5v21.9h13.486V215.84H220.621v-8.126H230.3V205.77h-9.679v-7.945Z" transform="translate(-109.033 -97.747)"/>
    <path id="Path_2606" data-name="Path 2606" d="M111.878,11.432,128.562,0V18.168l15.045,10.308v21.74l-15.864,10.87-15.864-10.87Zm16.684,27.352V20.414L141.967,29.6v18.37Zm-14.225,10.87,13.405-9.185,13.405,9.185L127.742,58.84Zm-.82-1.685V12.555L126.923,3.37V38.784Z" transform="translate(-55.829)" fill-rule="evenodd"/>
  </g>
</svg>
