<svg xmlns="http://www.w3.org/2000/svg" width="318.801" height="92" viewBox="0 0 318.801 92">
  <g id="Group_929" data-name="Group 929" transform="translate(-661)">
    <g id="Group_5" data-name="Group 5" transform="translate(-7 -760)">
      <rect id="Rectangle_1" data-name="Rectangle 1" width="66.667" height="3.333" transform="translate(760 760)"/>
      <rect id="Rectangle_2" data-name="Rectangle 2" width="66.667" height="3.333" transform="translate(760 786.667)"/>
      <path id="Path_12" data-name="Path 12" d="M890,760v13.333H760v3.333H890V790h3.333V760Z"/>
    </g>
    <g id="Group_7" data-name="Group 7" transform="translate(-135.645 -891.099)">
      <g id="Group_6" data-name="Group 6" transform="translate(796.645 963.099)">
        <path id="Path_13" data-name="Path 13" d="M810.527,974.093H798.8v7.278h12.911l-.3,1.887H796.645V964.066h14.5v1.887H798.8v6.253h11.725Z" transform="translate(-796.645 -963.662)"/>
        <path id="Path_14" data-name="Path 14" d="M853.656,977.169c.728,2.4,2.48,4.125,6.415,4.125,4.016,0,5.607-1.618,5.607-3.558,0-2.048-1.105-3.342-6.308-4.2-5.525-.943-6.954-2.641-6.954-5.256,0-3.261,3.073-5.175,7.143-5.175,6.173,0,7.547,3.234,7.763,5.094h-2.21c-.431-1.4-1.294-3.261-5.579-3.261-2.911,0-4.879,1-4.879,3.127,0,1.7.782,2.8,5.338,3.558,6.846,1.132,7.951,3.289,7.951,5.9,0,2.965-2.4,5.58-7.978,5.58-5.2,0-7.9-2.372-8.545-5.93Z" transform="translate(-828.534 -963.099)"/>
        <path id="Path_15" data-name="Path 15" d="M912.882,977.169c.728,2.4,2.48,4.125,6.415,4.125,4.016,0,5.606-1.618,5.606-3.558,0-2.048-1.105-3.342-6.307-4.2-5.526-.943-6.954-2.641-6.954-5.256,0-3.261,3.073-5.175,7.143-5.175,6.172,0,7.547,3.234,7.763,5.094h-2.21c-.431-1.4-1.294-3.261-5.58-3.261-2.911,0-4.878,1-4.878,3.127,0,1.7.781,2.8,5.337,3.558,6.847,1.132,7.951,3.289,7.951,5.9,0,2.965-2.4,5.58-7.978,5.58-5.2,0-7.9-2.372-8.545-5.93Z" transform="translate(-863.015 -963.099)"/>
        <path id="Path_16" data-name="Path 16" d="M987.559,974.093H975.833v7.278h12.911l-.3,1.887H973.677V964.066h14.5v1.887H975.833v6.253h11.725Z" transform="translate(-899.712 -963.662)"/>
        <path id="Path_17" data-name="Path 17" d="M1032.451,983.258V964.066h2.588c4.016,5.364,11.321,14.636,12.372,16.55h.054c-.162-2.642-.135-5.526-.135-8.626v-7.925h2.049v19.192h-2.48c-3.126-4.1-11.051-14.69-12.507-16.927h-.054c.161,2.48.161,5.2.161,8.6v8.329Z" transform="translate(-933.93 -963.662)"/>
        <path id="Path_18" data-name="Path 18" d="M1115.32,977.223c-1.159,3.262-3.477,5.876-8.814,5.876-6.226,0-9.73-4.394-9.73-9.946,0-5.579,3.909-10.054,9.865-10.054,5.445,0,7.952,2.884,8.76,6.038h-2.237c-.971-2.265-2.641-4.151-6.577-4.151-4.636,0-7.52,3.4-7.52,8.087,0,4.582,2.911,8.14,7.547,8.14,3.882,0,5.391-1.671,6.524-3.99Z" transform="translate(-971.379 -963.099)"/>
        <path id="Path_19" data-name="Path 19" d="M1177.883,974.093h-11.726v7.278h12.911l-.3,1.887H1164V964.066h14.5v1.887h-12.345v6.253h11.726Z" transform="translate(-1010.517 -963.662)"/>
      </g>
      <path id="Path_20" data-name="Path 20" d="M1254.453,964.066h2.156v7.9h12.319v-7.9h2.156v19.192h-2.156v-9.38h-12.319v9.38h-2.156Z" transform="translate(-266.533 -0.563)"/>
      <path id="Path_21" data-name="Path 21" d="M1338.04,973.045c0,5.445-3.693,10.054-9.973,10.054-6.092,0-10-4.448-10-10.081a9.987,9.987,0,0,1,19.973.027Zm-17.682-.108c0,4.285,2.722,8.275,7.763,8.275,4.933,0,7.628-3.666,7.628-8.113,0-4.151-2.75-8.113-7.817-8.113C1323.27,964.985,1320.358,968.651,1320.358,972.937Z" transform="translate(-303.568)"/>
      <path id="Path_22" data-name="Path 22" d="M1407.848,974.713c0-3.639,0-7.116.108-9.057h-.027c-.944,2.7-4.717,11.133-7.6,17.6h-1.86c-2.13-5.148-6.254-14.717-7.3-17.574h-.027c.162,2.183.242,6.334.242,9.569v8.006h-2.022V964.066h3.073c2.83,6.388,6.523,14.987,7.089,16.523h.027c.943-2.21,4.69-10.593,7.278-16.523h3.154v19.192h-2.13Z" transform="translate(-345.073 -0.563)"/>
      <path id="Path_23" data-name="Path 23" d="M1479.239,974.093h-11.725v7.278h12.911l-.3,1.887h-14.772V964.066h14.5v1.887h-12.345v6.253h11.725Z" transform="translate(-389.32 -0.563)"/>
      <path id="Path_24" data-name="Path 24" d="M1522.369,977.169c.728,2.4,2.48,4.125,6.415,4.125,4.016,0,5.607-1.618,5.607-3.558,0-2.048-1.105-3.342-6.308-4.2-5.525-.943-6.954-2.641-6.954-5.256,0-3.261,3.073-5.175,7.143-5.175,6.173,0,7.547,3.234,7.763,5.094h-2.21c-.431-1.4-1.294-3.261-5.579-3.261-2.911,0-4.879,1-4.879,3.127,0,1.7.782,2.8,5.337,3.558,6.847,1.132,7.952,3.289,7.952,5.9,0,2.965-2.4,5.58-7.978,5.58-5.2,0-7.9-2.372-8.545-5.93Z" transform="translate(-421.209)"/>
    </g>
  </g>
</svg>
